#!OML:ASF E:\motion texture\Top Level 1\Subject 1\Session 1\male.ASF
:FULLY-SPECIFIED
:DEGREES
638
root -40.0554 17.9352 3.80261 80.753 -86.5121 -78.8878
lowerback -1.63535 1.09625 3.03207
upperback -3.12549 1.42572 1.17855
thorax -2.248 0.635691 -0.491462
lowerneck -18.218 -2.04343 -4.1989
upperneck 22.4568 -3.29367 5.63941
head 10.3632 -1.28238 2.22726
rclavicle 7.66253e-015 2.84262e-014
rhumerus 15.496 -12.0539 -47.3988
rradius 80.6386
rwrist 2.22223
rhand -12.6498 -33.8431
rfingers 7.12502
rthumb 13.4308 -423.39
lclavicle 7.66253e-015 2.84262e-014
lhumerus -25.0006 2.50841 75.4856
lradius 35.3891
lwrist -18.6433
lhand -11.9418 23.9715
lfingers 7.12502
lthumb 14.113 53.4722
rfemur -25.1958 -7.0013 20.8949
rtibia 38.8909
rfoot -3.51945 -20.3534
rtoes 7.05613
lfemur -4.51708 -9.21458 -18.3157
ltibia 16.9461
lfoot -10.068 -4.98487
ltoes 0.223475
639
root -40.1873 17.9273 3.79067 77.2887 -86.5333 -75.3068
lowerback -1.65017 1.10568 2.86325
upperback -3.07089 1.43806 1.12571
thorax -2.18529 0.647288 -0.450646
lowerneck -18.2464 -2.12619 -4.28879
upperneck 22.359 -3.38902 5.69904
head 10.3416 -1.32535 2.24891
rclavicle -1.13276e-014 -1.87852e-014
rhumerus 13.7909 -11.291 -47.7918
rradius 80.1261
rwrist 2.83632
rhand -13.166 -33.8255
rfingers 7.12502
rthumb 12.9331 -423.405
lclavicle -1.13276e-014 -1.87852e-014
lhumerus -25.452 3.18043 76.1192
lradius 34.404
lwrist -19.2815
lhand -11.9301 23.8736
lfingers 7.12502
lthumb 14.1243 53.3735
rfemur -25.5513 -6.82431 20.7439
rtibia 37.1654
rfoot -3.82046 -20.2697
rtoes 6.58031
lfemur -4.10705 -9.26014 -18.424
ltibia 16.8557
lfoot -10.4193 -5.05391
ltoes 0.133337
640
root -40.3197 17.9179 3.77843 74.018 -86.5502 -71.9195
lowerback -1.66189 1.11804 2.69692
upperback -3.01455 1.45456 1.07325
thorax -2.1225 0.660763 -0.410813
lowerneck -18.2672 -2.20376 -4.38398
upperneck 22.2544 -3.47535 5.75942
head 10.3158 -1.36466 2.27294
rclavicle -7.33018e-015 -2.83268e-015
rhumerus 12.0689 -10.536 -48.2648
rradius 79.5378
rwrist 3.50631
rhand -13.6978 -33.8407
rfingers 7.12502
rthumb 12.4204 -423.452
lclavicle -7.33018e-015 -2.83268e-015
lhumerus -25.9037 3.95127 76.6927
lradius 33.3704
lwrist -19.9689
lhand -11.907 23.789
lfingers 7.12502
lthumb 14.1466 53.2874
rfemur -25.8785 -6.62799 20.585
rtibia 35.4573
rfoot -4.08847 -20.1833
rtoes 6.08659
lfemur -3.70789 -9.29245 -18.5349
ltibia 16.7918
lfoot -10.7765 -5.11367
ltoes 0.0240147
641
root -40.4527 17.9072 3.76579 70.9126 -86.5629 -68.6974
lowerback -1.67291 1.13295 2.53309
upperback -2.95511 1.47457 1.0223
thorax -2.05692 0.67585 -0.370753
lowerneck -18.2852 -2.27733 -4.48331
upperneck 22.1449 -3.55392 5.8181
head 10.2874 -1.40096 2.29811
rclavicle 9.9437e-015 -3.39953e-015
rhumerus 10.3314 -9.79497 -48.8133
rradius 78.8687
rwrist 4.22693
rhand -14.2337 -33.8857
rfingers 7.12502
rthumb 11.9038 -423.527
lclavicle 9.9437e-015 -3.39953e-015
lhumerus -26.3565 4.82186 77.1998
lradius 32.2976
lwrist -20.7072
lhand -11.8657 23.7156
lfingers 7.12502
lthumb 14.1864 53.2112
rfemur -26.1774 -6.41188 20.4207
rtibia 33.7763
rfoot -4.32422 -20.0934
rtoes 5.57468
lfemur -3.32038 -9.3143 -18.6456
ltibia 16.756
lfoot -11.1381 -5.16552
ltoes -0.10217
642
root -40.5862 17.8952 3.75273 67.9466 -86.5721 -65.6148
lowerback -1.68324 1.14959 2.37245
upperback -2.89373 1.49704 0.972862
thorax -1.98979 0.691964 -0.330845
lowerneck -18.3052 -2.34793 -4.57812
upperneck 22.0368 -3.62602 5.86368
head 10.2594 -1.43538 2.31876
rclavicle -1.08307e-014 -7.3923e-015
rhumerus 8.58406 -9.07138 -49.4373
rradius 78.1105
rwrist 4.99066
rhand -14.7591 -33.955
rfingers 7.12502
rthumb 11.397 -423.625
lclavicle -1.08307e-014 -7.3923e-015
lhumerus -26.8099 5.80298 77.6304
lradius 31.1804
lwrist -21.5184
lhand -11.8089 23.647
lfingers 7.12502
lthumb 14.2411 53.1387
rfemur -26.4494 -6.17721 20.2511
rtibia 32.1319
rfoot -4.51702 -19.9922
rtoes 5.04049
lfemur -2.94512 -9.32711 -18.7559
ltibia 16.7491
lfoot -11.5028 -5.21106
ltoes -0.246089
643
root -40.7205 17.8822 3.73918 65.1079 -86.5763 -62.66
lowerback -1.69182 1.16779 2.21684
upperback -2.83084 1.52176 0.925745
thorax -1.92213 0.708956 -0.291321
lowerneck -18.3253 -2.41502 -4.67326
upperneck 21.9288 -3.69122 5.90257
head 10.231 -1.46739 2.33806
rclavicle -6.2291e-015 -7.45443e-016
rhumerus 6.82946 -8.37109 -50.1336
rradius 77.2564
rwrist 5.78813
rhand -15.2628 -34.0451
rfingers 7.12502
rthumb 10.9113 -423.742
lclavicle -6.2291e-015 -7.45443e-016
lhumerus -27.269 6.89487 77.9769
lradius 30.0299
lwrist -22.4062
lhand -11.7332 23.5818
lfingers 7.12502
lthumb 14.3141 53.0684
rfemur -26.6964 -5.92412 20.0783
rtibia 30.5328
rfoot -4.65427 -19.8853
rtoes 4.51719
lfemur -2.58285 -9.33213 -18.8625
ltibia 16.7726
lfoot -11.869 -5.25245
ltoes -0.411775
644
root -40.8555 17.8682 3.72514 62.406 -86.5734 -59.8425
lowerback -1.69956 1.18749 2.06988
upperback -2.76645 1.54857 0.881634
thorax -1.85338 0.726691 -0.253478
lowerneck -18.344 -2.47872 -4.76974
upperneck 21.8198 -3.74971 5.93615
head 10.2016 -1.49704 2.35664
rclavicle -9.21398e-015 -2.41026e-015
rhumerus 5.07182 -7.70148 -50.9002
rradius 76.2997
rwrist 6.61146
rhand -15.7378 -34.157
rfingers 7.12502
rthumb 10.4531 -423.877
lclavicle -9.21398e-015 -2.41026e-015
lhumerus -27.7369 8.10197 78.2298
lradius 28.8516
lwrist -23.3812
lhand -11.6378 23.5172
lfingers 7.12502
lthumb 14.406 52.9972
rfemur -26.9214 -5.65574 19.9071
rtibia 28.9895
rfoot -4.7361 -19.7755
rtoes 4.02699
lfemur -2.23408 -9.33123 -18.9619
ltibia 16.8275
lfoot -12.2344 -5.29031
ltoes -0.60235
645
root -40.9914 17.8535 3.71058 59.861 -86.5626 -57.1834
lowerback -1.70618 1.20856 1.93359
upperback -2.70074 1.57731 0.841374
thorax -1.78385 0.745057 -0.217599
lowerneck -18.3618 -2.53918 -4.86631
upperneck 21.7115 -3.80181 5.96273
head 10.1718 -1.52456 2.37365
rclavicle -1.40982e-014 -6.55989e-015
rhumerus 3.31597 -7.06953 -51.7341
rradius 75.2343
rwrist 7.45661
rhand -16.1778 -34.2867
rfingers 7.12502
rthumb 10.0286 -424.028
lclavicle -1.40982e-014 -6.55989e-015
lhumerus -28.2202 9.42506 78.3799
lradius 27.6532
lwrist -24.4523
lhand -11.5216 23.4547
lfingers 7.12502
lthumb 14.518 52.9267
rfemur -27.1256 -5.37499 19.7417
rtibia 27.5115
rfoot -4.76522 -19.6602
rtoes 3.56031
lfemur -1.89865 -9.32519 -19.0514
ltibia 16.9151
lfoot -12.5966 -5.32599
ltoes -0.818955
646
root -41.128 17.8383 3.69545 57.5071 -86.5418 -54.717
lowerback -1.70989 1.23155 1.81133
upperback -2.63458 1.60873 0.806002
thorax -1.71535 0.764361 -0.184544
lowerneck -18.3789 -2.59724 -4.96399
upperneck 21.6036 -3.84869 5.98345
head 10.1418 -1.55041 2.38952
rclavicle 7.73397e-015 6.41081e-015
rhumerus 1.56409 -6.48594 -52.6305
rradius 74.0547
rwrist 8.32618
rhand -16.5693 -34.4215
rfingers 7.12502
rthumb 9.65087 -424.18
lclavicle 7.73397e-015 6.41081e-015
lhumerus -28.7247 10.8666 78.4174
lradius 26.4428
lwrist -25.6251
lhand -11.3763 23.399
lfingers 7.12502
lthumb 14.658 52.8609
rfemur -27.3127 -5.08385 19.5882
rtibia 26.1116
rfoot -4.74946 -19.5469
rtoes 3.13463
lfemur -1.57818 -9.31337 -19.1258
ltibia 17.0369
lfoot -12.9524 -5.36107
ltoes -1.06246
647
root -41.2656 17.8227 3.67986 55.3086 -86.5142 -52.4107
lowerback -1.71046 1.25541 1.70117
upperback -2.56613 1.6414 0.774716
thorax -1.64618 0.783987 -0.154044
lowerneck -18.3967 -2.6521 -5.06266
upperneck 21.4956 -3.88956 5.99985
head 10.1115 -1.57401 2.40488
rclavicle -1.6614e-014 -1.54058e-015
rhumerus -0.17584 -5.96057 -53.5864
rradius 72.7545
rwrist 9.22487
rhand -16.9038 -34.5615
rfingers 7.12502
rthumb 9.32815 -424.335
lclavicle -1.6614e-014 -1.54058e-015
lhumerus -29.2567 12.4332 78.3297
lradius 25.2272
lwrist -26.9126
lhand -11.1989 23.3515
lfingers 7.12502
lthumb 14.8289 52.8009
rfemur -27.4816 -4.78799 19.4441
rtibia 24.8003
rfoot -4.69816 -19.4397
rtoes 2.75588
lfemur -1.26873 -9.29753 -19.1908
ltibia 17.1929
lfoot -13.2988 -5.39665
ltoes -1.33566
648
root -41.404 17.8069 3.66364 53.3103 -86.4774 -50.3064
lowerback -1.70925 1.28116 1.60596
upperback -2.49834 1.67662 0.748988
thorax -1.57854 0.804504 -0.126201
lowerneck -18.4092 -2.70428 -5.16117
upperneck 21.3876 -3.92496 6.00834
head 10.0798 -1.59606 2.4182
rclavicle 2.19253e-014 9.93923e-015
rhumerus -1.90527 -5.50438 -54.5939
rradius 71.3321
rwrist 10.1577
rhand -17.1709 -34.7027
rfingers 7.12502
rthumb 9.07044 -424.488
lclavicle 2.19253e-014 9.93923e-015
lhumerus -29.8296 14.1246 78.1046
lradius 24.0159
lwrist -28.3274
lhand -10.9943 23.3019
lfingers 7.12502
lthumb 15.026 52.7366
rfemur -27.6385 -4.48482 19.3158
rtibia 23.5852
rfoot -4.61571 -19.3431
rtoes 2.42439
lfemur -0.976657 -9.27613 -19.2386
ltibia 17.3861
lfoot -13.6319 -5.43567
ltoes -1.638
649
root -41.5435 17.7911 3.64685 51.4744 -86.4346 -48.3701
lowerback -1.70433 1.30803 1.52215
upperback -2.4291 1.71343 0.728425
thorax -1.5114 0.82555 -0.0994451
lowerneck -18.4206 -2.75398 -5.2616
upperneck 21.28 -3.95524 6.01229
head 10.0476 -1.61641 2.43096
rclavicle -1.72073e-015 4.62174e-015
rhumerus -3.61671 -5.12917 -55.6467
rradius 69.7833
rwrist 11.1282
rhand -17.365 -34.8361
rfingers 7.12502
rthumb 8.8831 -424.629
lclavicle -1.72073e-015 4.62174e-015
lhumerus -30.4526 15.9447 77.7282
lradius 22.8172
lwrist -29.8795
lhand -10.7545 23.2587
lfingers 7.12502
lthumb 15.257 52.676
rfemur -27.78 -4.18046 19.2011
rtibia 22.4714
rfoot -4.50496 -19.2438
rtoes 2.15225
lfemur -0.697374 -9.25019 -19.2744
ltibia 17.6167
lfoot -13.9491 -5.48013
ltoes -1.96823
